<svg id="Capa_1" enable-background="new 0 0 510 510" height="512" viewBox="0 0 510 510" width="512" xmlns="http://www.w3.org/2000/svg"><g><path d="m0 150h174v-150h-174zm30-120h114v90h-114z"/><path d="m0 510h174v-326h-174zm30-296h114v129.974l-36.184 30.153-44.816-14.938-33 11zm0 187.811 33-11 51.184 17.061 29.816-24.846v96.974h-114z"/><path d="m208 510h302v-174h-302zm30-144h242v114h-242z"/><path d="m208 0v302h302v-302zm200 272h-98v-30.96c0-23.732 19.308-43.04 43.04-43.04h11.92c23.732 0 43.04 19.308 43.04 43.04zm-74-129c0-13.785 11.215-25 25-25s25 11.215 25 25-11.215 25-25 25-25-11.215-25-25zm146 129h-42v-30.96c0-26.96-14.694-50.538-36.483-63.192 29.291-35.671 3.835-89.848-42.517-89.848-46.388 0-71.792 54.196-42.517 89.848-21.789 12.654-36.483 36.232-36.483 63.192v30.96h-42v-242h242z"/><path d="m87.149 300.83c16.53 0 29.979-13.448 29.979-29.979s-13.448-29.979-29.979-29.979-29.979 13.448-29.979 29.979 13.448 29.979 29.979 29.979z"/></g></svg>